:SAMPLES-PER-SECOND 30
:FULLY-SPECIFIED
:DEGREES
892
root  -3.09889 23.6258 8.42013 42.1225 -62.3812 -131.599
Spine  -5.40357 -13.9015 9.11972
Spine1  -2.99029 -9.84658 -1.79226
Neck  3.97569e-016 0 -2.38542e-015
Head  -25.129 8.71349 36.22
R_Clavicle  2.31222 16.7278 7.79771
R_UpperArm  91.5326 -47.7121 28.6055
R_Forearm  13.4984 -1.56507 6.89431
R_Hand  -20.339 6.01491 -133.602
L_Clavicle  0.34068 -0.474224 -2.24168
L_UpperArm  -42.9525 12.0552 19.9345
L_Forearm  11.1425 -24.4864 -31.7464
L_Hand  0.437658 -10.2563 -10.0214
L_Thigh  2.05076 39.8192 43.3346
L_Calf  -15.7836 -6.53421 50.0778
L_Foot  1.09419 9.77042 -4.55894
L_Toe0  0.505156 0.00992522 -6.13631
R_Thigh  15.7592 -38.2489 7.0622
R_Calf  1.97128 7.86635 25.1997
R_Foot  1.4985 6.29551 5.91476
R_Toe0  -1.78853 -0.272788 -17.3235
893
root  -4.88869 25.5351 9.30055 15.0876 -70.7908 -115.567
Spine  -8.48483 -16.5485 11.4486
Spine1  -5.56477 3.02273 -6.39507
Neck  3.97569e-016 0 -2.38542e-015
Head  -23.8623 6.92999 33.6409
R_Clavicle  2.49983 19.2438 8.01085
R_UpperArm  94.7255 -26.4074 24.6745
R_Forearm  16.3763 -5.37613 8.46483
R_Hand  -15.4397 3.51846 -128.832
L_Clavicle  0.597942 0.144578 -4.34256
L_UpperArm  -33.0907 10.4564 13.1717
L_Forearm  2.90256 -13.9564 -16.6931
L_Hand  0.265517 -8.32233 -9.71664
L_Thigh  0.91237 41.9306 41.3262
L_Calf  -12.7373 -6.75369 51.2425
L_Foot  -0.865107 9.04079 -11.1532
L_Toe0  0.505156 0.0094972 -6.13632
R_Thigh  15.1715 -37.2341 5.53675
R_Calf  0.691426 8.62956 27.8903
R_Foot  0.885403 4.52109 5.84544
R_Toe0  -1.78853 -0.272788 -17.3235
894
root  -6.11249 27.4844 10.5016 -33.4547 -75.2623 -79.0326
Spine  -12.8537 -20.2815 15.44
Spine1  -10.5039 18.828 -14.0503
Neck  3.97569e-016 0 -2.38542e-015
Head  -14.5303 2.00515 31.1651
R_Clavicle  2.06349 18.3298 6.82697
R_UpperArm  87.6141 3.36806 17.0966
R_Forearm  18.8929 -10.201 14.1711
R_Hand  -18.1914 6.48868 -126.32
L_Clavicle  0.420793 4.74665 -5.53947
L_UpperArm  -33.529 6.0715 9.12233
L_Forearm  -10.5991 1.28238 1.47558
L_Hand  0.115813 -6.50252 -12.4632
L_Thigh  -0.0964155 46.1299 40.4687
L_Calf  -14.7987 -7.62173 51.7609
L_Foot  -2.13632 9.35975 -16.0527
L_Toe0  0.505156 0.00908528 -6.13632
R_Thigh  13.982 -36.1128 6.28161
R_Calf  0.759413 9.35665 30.5499
R_Foot  0.663318 3.91077 5.9592
R_Toe0  -1.78853 -0.272788 -17.3235
895
root  -6.67374 29.4442 11.5763 -83.6931 -67.8289 -41.6149
Spine  -15.799 -20.5921 17.8323
Spine1  -16.3129 27.1885 -23.4958
Neck  3.97569e-016 0 -2.38542e-015
Head  -3.65551 -0.853613 27.4767
R_Clavicle  1.60341 13.8375 6.04827
R_UpperArm  70.7759 24.4525 10.0279
R_Forearm  20.4991 -9.18554 14.6604
R_Hand  -27.6831 16.071 -119.732
L_Clavicle  0.209684 8.6588 -6.82654
L_UpperArm  -35.3152 -5.34578 5.12629
L_Forearm  -20.5904 17.6627 21.5762
L_Hand  0.0405031 -5.84079 -13.2835
L_Thigh  -1.76925 49.9106 38.2547
L_Calf  -21.4617 -9.74745 53.0557
L_Foot  -2.10869 8.47211 -15.5183
L_Toe0  0.505156 0.00868929 -6.13632
R_Thigh  8.54217 -37.8238 11.9074
R_Calf  3.52927 9.49242 31.0507
R_Foot  0.541137 3.83982 7.14749
R_Toe0  -1.78853 -0.272788 -17.3235
896
root  -6.48145 31.2863 12.298 -104.364 -56.0325 -34.6673
Spine  -15.3419 -16.7322 17.7222
Spine1  -19.0921 25.9072 -31.6723
Neck  3.97569e-016 0 -2.38542e-015
Head  4.79685 0.0805575 23.5153
R_Clavicle  2.06297 13.3387 7.53857
R_UpperArm  59.0848 35.0783 0.262427
R_Forearm  25.3404 -11.2138 14.8931
R_Hand  -28.8749 18.115 -118.004
L_Clavicle  0.233356 9.60469 -8.75864
L_UpperArm  -32.4348 -20.5066 0.702244
L_Forearm  -29.0922 30.5141 41.7581
L_Hand  -0.190621 -3.38535 -9.63988
L_Thigh  -4.55068 50.8554 32.4432
L_Calf  -24.6796 -11.0819 54.4863
L_Foot  -1.28676 3.44932 -9.19247
L_Toe0  0.505156 0.00830909 -6.13633
R_Thigh  0.904257 -43.1008 19.5845
R_Calf  7.78309 8.88596 28.8106
R_Foot  0.361501 3.33534 7.12126
R_Toe0  -1.78853 -0.272788 -17.3235
897
root  -5.71107 32.6357 12.3748 -121.235 -47.2122 -32.4471
Spine  -11.7435 -9.71945 18.066
Spine1  -17.1477 19.5179 -36.3783
Neck  3.97569e-016 0 -2.38542e-015
Head  11.1989 1.57485 19.1294
R_Clavicle  4.2518 20.7983 12.5347
R_UpperArm  51.6517 37.9048 -11.7675
R_Forearm  32.7413 -11.0828 14.5339
R_Hand  -35.4616 21.0803 -124.263
L_Clavicle  0.48235 7.64816 -9.32484
L_UpperArm  -28.2253 -34.0066 -7.55599
L_Forearm  -35.763 37.5941 56.4238
L_Hand  -0.0459093 0.951552 -6.23502
L_Thigh  -8.98338 50.1396 23.3147
L_Calf  -18.6386 -10.4606 54.3996
L_Foot  -1.50081 -3.06981 -4.44531
L_Toe0  0.505156 0.00794448 -6.13633
R_Thigh  -5.33293 -49.7288 24.852
R_Calf  9.1747 7.50172 23.9024
R_Foot  0.464782 3.56697 6.89257
R_Toe0  -1.78853 -0.272788 -17.3235
898
root  -5.00079 33.3458 11.7303 -139.392 -39.5744 -30.0302
Spine  -6.81297 -1.88159 18.86
Spine1  -12.5397 11.7049 -37.4187
Neck  3.97569e-016 0 -2.38542e-015
Head  17.1539 2.63808 13.8834
R_Clavicle  6.72785 26.5927 17.325
R_UpperArm  46.6136 39.3962 -21.4211
R_Forearm  43.6466 -7.07828 11.9337
R_Hand  -44.1836 23.7872 -132.626
L_Clavicle  0.511403 4.68024 -6.36936
L_UpperArm  -26.8111 -41.3159 -13.4335
L_Forearm  -51.93 33.8993 49.1226
L_Hand  -1.16833 -9.79876 -11.9334
L_Thigh  -15.0632 48.9669 12.8081
L_Calf  -11.7259 -9.91985 52.7261
L_Foot  -2.24293 -5.53196 -5.72371
L_Toe0  0.505156 0.00759532 -6.13633
R_Thigh  -10.4091 -55.6165 28.5016
R_Calf  8.92805 5.21585 16.2396
R_Foot  0.214702 3.25492 8.4416
R_Toe0  -1.78853 -0.272788 -17.3235
899
root  -4.63479 33.6678 10.7546 -158.167 -31.1873 -28.5237
Spine  -1.12588 6.8062 19.8008
Spine1  -6.38967 1.03418 -36.453
Neck  3.97569e-016 0 -2.38542e-015
Head  21.1456 4.35598 9.69562
R_Clavicle  6.71979 28.0471 16.8905
R_UpperArm  41.1317 42.8028 -24.8082
R_Forearm  56.4899 -4.69685 9.42907
R_Hand  -38.6959 18.5118 -134.975
L_Clavicle  0.020804 2.52064 -0.767133
L_UpperArm  -37.9868 -38.248 -2.2703
L_Forearm  -76.7993 8.37436 12.1913
L_Hand  23.1669 -45.0417 -56.3598
L_Thigh  -21.7445 46.4568 5.19665
L_Calf  -8.21644 -8.93528 48.2685
L_Foot  -2.89294 -7.31609 -7.79289
L_Toe0  0.505156 0.00726142 -6.13634
R_Thigh  -14.3687 -59.0603 30.8447
R_Calf  10.5977 2.4358 7.38942
R_Foot  -0.14108 2.56196 9.48806
R_Toe0  -1.78853 -0.272788 -17.3235
900
root  -4.46647 33.8966 9.71052 -177.427 -22.3172 -28.1418
Spine  6.74946 16.7467 23.4938
Spine1  2.4062 -14.6796 -36.8275
Neck  3.97569e-016 0 -2.38542e-015
Head  20.2645 5.46678 9.27186
R_Clavicle  5.71475 29.4053 14.2541
R_UpperArm  37.3592 46.747 -25.3858
R_Forearm  63.1307 -6.79461 10.2866
R_Hand  -33.0914 13.5756 -136.33
L_Clavicle  -0.760488 0.263827 5.66174
L_UpperArm  -34.42 -43.6407 -11.0558
L_Forearm  -77.6643 6.75457 11.8263
L_Hand  33.702 -42.3173 -81.2699
L_Thigh  -29.1295 42.8717 4.47694
L_Calf  -1.08782 -5.59261 39.1944
L_Foot  -3.40625 -11.066 -5.96581
L_Toe0  0.505156 0.00694263 -6.13634
R_Thigh  -15.7798 -59.9208 29.8994
R_Calf  12.2594 0.00553022 -0.153791
R_Foot  0.090812 3.18786 9.56889
R_Toe0  -1.78853 -0.272788 -17.3235
901
root  -4.60966 34.1529 8.60231 163.43 -13.4448 -27.7343
Spine  16.3505 23.5503 30.5831
Spine1  12.8698 -29.6924 -39.1115
Neck  3.97569e-016 0 -2.38542e-015
Head  15.9632 4.82366 12.273
R_Clavicle  4.04586 32.7118 9.97744
R_UpperArm  47.3498 44.0441 -14.8525
R_Forearm  65.5898 -4.15569 9.16379
R_Hand  -51.9536 27.902 -137.599
L_Clavicle  -1.81161 -3.77958 10.9144
L_UpperArm  -27.2535 -49.7476 -20.5935
L_Forearm  -71.9171 13.7129 18.9935
L_Hand  29.3997 -41.8569 -75.0043
L_Thigh  -31.5653 39.9723 8.88645
L_Calf  3.25961 -4.02455 30.6339
L_Foot  -3.29846 -11.6565 -3.56699
L_Toe0  0.505156 0.00663878 -6.13634
R_Thigh  -14.6626 -59.5682 24.4848
R_Calf  13.4711 -1.58538 -5.08339
R_Foot  0.0965484 3.29325 9.94939
R_Toe0  -1.78853 -0.272788 -17.3235
902
root  -5.04748 34.3987 7.69485 146.429 -4.28537 -27.6186
Spine  23.4628 25.3169 35.4316
Spine1  20.3636 -37.9014 -39.6477
Neck  3.97569e-016 0 -2.38542e-015
Head  12.7711 4.53407 15.9393
R_Clavicle  0.735983 34.2407 2.79853
R_UpperArm  63.5564 36.9518 3.12859
R_Forearm  60.9822 -2.21238 7.89997
R_Hand  -58.9636 62.4527 -102.873
L_Clavicle  -3.35037 -9.67589 16.1353
L_UpperArm  -21.4419 -54.0602 -25.4673
L_Forearm  -72.4373 16.2875 19.5535
L_Hand  27.4277 -41.8016 -71.0387
L_Thigh  -32.4453 37.0347 16.7775
L_Calf  2.1372 -3.81156 28.3492
L_Foot  -2.73289 -9.30999 -3.24356
L_Toe0  0.505156 0.0063497 -6.13634
R_Thigh  -10.2614 -58.7508 13.9613
R_Calf  14.9767 -2.33588 -7.41359
R_Foot  -0.589331 1.52977 9.99927
R_Toe0  -1.78853 -0.272788 -17.3235
